<svg xmlns="http://www.w3.org/2000/svg" width="20" height="20" viewBox="0 0 20 20">
    <path id="svg_1" d="m6.014286,6l0,-1.545c0,-2.782 1.615,-4.455 4,-4.455s4,1.673 4,4.455l0,1.545l3.04,0a1,1 0 0 1 0.996,0.919l0.975,12a1,1 0 0 1 -0.997,1.081l-16.029,0a1,1 0 0 1 -0.996,-1.081l0.975,-12a1,1 0 0 1 0.996,-0.919l3.04,0zm2,0l4,0l0,-1.545c0,-1.693 -0.736,-2.455 -2,-2.455s-2,0.762 -2,2.455l0,1.545zm-2,2l-2.118,0l-0.812,10l13.86,0l-0.812,-10l-2.118,0l0,2a1,1 0 0 1 -2,0l0,-2l-4,0l0,2a1,1 0 0 1 -2,0l0,-2z" fill-rule="evenodd" fill="currentColor"/>
</svg>