<svg xmlns="http://www.w3.org/2000/svg" width="40" height="40" viewBox="0 0 40 40">
    <g fill="none" fill-rule="evenodd">
        <path fill="currentColor" d="M25.338 13.462a1.2 1.2 0 1 1 0 2.4 1.2 1.2 0 0 1 0-2.4zM20 23.333a3.333 3.333 0 1 0 0-6.666 3.333 3.333 0 0 0 0 6.666zm0-8.468a5.135 5.135 0 1 1 0 10.27 5.135 5.135 0 0 1 0-10.27zm8.14 9.176c.048-1.055.058-1.371.058-4.041 0-2.67-.01-2.986-.058-4.041-.044-.975-.207-1.505-.344-1.857a3.101 3.101 0 0 0-.748-1.15 3.1 3.1 0 0 0-1.15-.748c-.352-.136-.883-.3-1.857-.344-1.055-.048-1.371-.058-4.041-.058-2.67 0-2.986.01-4.041.058-.974.045-1.505.208-1.857.344a3.11 3.11 0 0 0-1.15.748 3.1 3.1 0 0 0-.748 1.15c-.136.352-.299.882-.344 1.857-.048 1.055-.058 1.37-.058 4.041 0 2.67.01 2.986.059 4.041.044.974.207 1.505.343 1.857.182.466.398.8.748 1.15.35.35.684.567 1.15.748.352.137.883.3 1.857.344 1.055.048 1.37.058 4.041.058 2.67 0 2.986-.01 4.041-.058.974-.044 1.505-.207 1.857-.345.467-.18.8-.398 1.15-.748a3.1 3.1 0 0 0 .748-1.15c.137-.351.3-.881.344-1.856zm1.8-8.164c.049 1.066.06 1.408.06 4.123 0 2.716-.011 3.056-.06 4.123-.049 1.064-.218 1.791-.465 2.427a4.905 4.905 0 0 1-1.153 1.772 4.912 4.912 0 0 1-1.771 1.153c-.636.247-1.363.416-2.428.465-1.066.048-1.407.06-4.123.06-2.715 0-3.056-.012-4.123-.06-1.065-.049-1.791-.218-2.427-.465a4.898 4.898 0 0 1-1.771-1.153 4.908 4.908 0 0 1-1.154-1.771c-.247-.637-.416-1.363-.465-2.428C10.012 23.056 10 22.716 10 20c0-2.715.012-3.056.06-4.123.049-1.065.218-1.791.465-2.427a4.9 4.9 0 0 1 1.154-1.771 4.893 4.893 0 0 1 1.771-1.154c.636-.247 1.363-.416 2.427-.465C16.944 10.011 17.285 10 20 10c2.716 0 3.057.011 4.123.06 1.064.049 1.791.218 2.427.465a4.907 4.907 0 0 1 1.772 1.153 4.897 4.897 0 0 1 1.153 1.772c.247.636.416 1.363.465 2.427z"/>
        <circle cx="20" cy="20" r="19.5" stroke="currentColor"/>
    </g>
</svg>
