<?xml version="1.0" encoding="utf-8"?>
<!-- Generator: Adobe Illustrator 16.0.0, SVG Export Plug-In . SVG Version: 6.00 Build 0)  -->
<!DOCTYPE svg PUBLIC "-//W3C//DTD SVG 1.1//EN" "http://www.w3.org/Graphics/SVG/1.1/DTD/svg11.dtd">
<svg version="1.1" id="Layer_1" xmlns="http://www.w3.org/2000/svg" xmlns:xlink="http://www.w3.org/1999/xlink" x="0px" y="0px"
	 width="150px" height="150px" viewBox="0 0 150 150" enable-background="new 0 0 150 150" xml:space="preserve">
<g>
	<defs>
		<rect id="SVGID_1_" width="150" height="150"/>
	</defs>
	<clipPath id="SVGID_2_">
		<use xlink:href="#SVGID_1_"  overflow="visible"/>
	</clipPath>
	<path clip-path="url(#SVGID_2_)" fill="#F88211" d="M0.852,74.875c0-41.021,33.255-74.273,74.275-74.273
		c41.02,0,74.271,33.251,74.271,74.273s-33.252,74.273-74.271,74.273C34.106,149.148,0.852,115.896,0.852,74.875"/>
	<path clip-path="url(#SVGID_2_)" d="M75.127,3.144c-39.618,0-71.732,32.113-71.732,71.731c0,39.617,32.114,71.73,71.732,71.73
		s71.73-32.113,71.73-71.73C146.857,35.257,114.745,3.144,75.127,3.144 M75.127,144.679c-38.552,0-69.806-31.251-69.806-69.804
		c0-38.553,31.254-69.805,69.806-69.805c38.554,0,69.804,31.252,69.804,69.805C144.931,113.428,113.681,144.679,75.127,144.679"/>
	<path clip-path="url(#SVGID_2_)" d="M99.675,41.383c0,0-2.348,1.283-5.016,0.321c0,0-1.599-0.642-2.666-0.75
		c0,0-0.428-1.174-1.388-1.384c0,0-2.452-10.135-11.521-11.308c0,0,1.815-2.987-1.386-5.654c0,0,1.386,3.199,0,4.48
		c0,0-1.389-5.336-7.574-4.908c0,0,3.838,1.28,5.226,3.734c0,0-6.935-4.054-10.56,4.161c0,0,3.094-3.948,8.107-2.028
		c0,0-9.709,1.493-11.203,16.216c0,0-3.197,0.638-3.944,1.386c0,0,2.025-0.427,2.878,0.639c0,0-3.199,2.134-3.199,4.908
		c0,0,2.346-2.774,3.945-1.918c0,0-2.665,2.771-1.492,5.228c0,0,1.17-2.883,2.239-2.561c0,0-1.601,4.694,1.065,5.546
		c0,0-0.639-3.094,0.749-3.094c0,0,0.853,3.521,5.332,5.335c0,0,5.38,7.574,0.961,7.574c-0.106,0-6.087,3.307-8.425,3.307
		c-0.322,0-3.843,1.6-5.871,0.746c0,0-3.306-2.772-5.013-0.639c0,0-2.772-2.562-4.266-2.456c0,0-2.668-2.986-4.267-2.558
		c0,0-1.708,0.745-0.215,4.584c0,0-0.211,5.44,3.948,8.535c0,0,1.464,13.376,16.542,18.148c-0.4,0.805-1.342,2.464-2.461,2.865
		c0,0-2.24-0.96-3.522-2.134c0,0-0.211,11.31,14.403,14.614c0,0-2.881-1.814-3.629-3.625c0,0,3.74,0.534,5.655,0l-0.852-0.749
		c0,0,9.495,2.349,17.707-3.198c0,0-3.308,0-5.333-0.322c0,0,2.986-1.813,3.841-4.371c0,0-3.521,2.025-5.121,2.239
		c0,0,2.027-2.454,2.134-4.905c0,0-6.613,5.439-10.349,5.545c0,0-1.128-2.823-1.353-4.611c3.664-0.368,9.586-1.612,15.01-5.63
		c0,0,3.519-2.025,4.479-5.545c0,0,2.878-2.773,0.747-6.4c0,0,0.958,0.213,1.28,1.174c0,0-0.429-2.454-1.922-3.732
		c0,0-0.214-1.282-0.64-1.498c0,0,0.744-0.319,1.173,0.429c0,0-1.173-2.027-2.347-2.986c0,0-3.412-6.722-5.334-8.322
		c0,0-4.161-4.266-0.424-7.679c0,0,2.771-1.493,4.798-3.735c0,0,5.655-0.425,7.682,2.134c0,0,0.318,0.214,0.318-0.531
		c0-0.748-1.6-5.976-3.627-6.83c0,0,8.749-3.198,8.855-8.427C103.834,40.743,102.554,37.114,99.675,41.383 M64.536,45.701
		c-0.898,0-1.629-0.73-1.629-1.631c0-0.901,1.53-2.962,1.629-3.062c0.062-0.06,1.632,2.16,1.632,3.062
		C66.168,44.971,65.438,45.701,64.536,45.701 M68.703,41.435c-1.603,0-2.901-1.299-2.901-2.902s2.723-5.27,2.901-5.447
		c0.106-0.108,2.902,3.845,2.902,5.447S70.303,41.435,68.703,41.435 M72.364,103.895c0,0-7.681-0.319-10.132-2.986
		c0,0,1.297-1.915,1.786-3.545c1.874,0.503,3.93,0.882,6.213,1.09c0,0,0.682,0.042,1.829-0.006
		C72.149,99.07,72.657,102.724,72.364,103.895 M71.89,48.174c-1.04,0-1.882-0.843-1.882-1.885c0-1.04,1.767-3.424,1.882-3.539
		c0.068-0.072,1.885,2.499,1.885,3.539C73.775,47.331,72.93,48.174,71.89,48.174 M114.643,31.796
		c-0.053-0.041-0.124-0.055-0.189-0.038l-5.831,1.534c-0.095,0.025-0.162,0.113-0.162,0.21v6.707
		c-0.029-0.003-0.061-0.003-0.092-0.003c-0.718,0-1.3,0.505-1.3,1.126c0,0.621,0.582,1.125,1.3,1.125
		c0.703,0,1.277-0.488,1.295-1.108v-0.018v-4.947l3.861-1.017v3.295c-0.028-0.003-0.062-0.003-0.093-0.003
		c-0.715,0-1.298,0.504-1.298,1.127c0,0.622,0.583,1.124,1.298,1.124c0.688,0,1.252-0.459,1.293-1.055
		c0-0.013,0.003-0.027,0.003-0.042v-7.847C114.728,31.902,114.696,31.836,114.643,31.796 M105.126,29.634
		c-0.004-0.004-0.006-0.008-0.011-0.013l-2.749-2.754l1.584-2.716l1.835,1.838c-0.019,0.014-0.037,0.033-0.053,0.051
		c-0.399,0.395-0.443,1.002-0.098,1.347c0.345,0.347,0.949,0.305,1.349-0.093c0.385-0.384,0.441-0.953,0.133-1.308
		c-0.007-0.007-0.013-0.016-0.021-0.024l-4.366-4.373c-0.035-0.038-0.089-0.056-0.143-0.051c-0.055,0.009-0.1,0.04-0.126,0.085
		l-2.399,4.1c-0.036,0.068-0.026,0.152,0.029,0.208l3.732,3.737c-0.021,0.015-0.038,0.032-0.055,0.05
		c-0.4,0.398-0.443,1.002-0.098,1.349c0.348,0.347,0.95,0.305,1.349-0.093C105.412,30.58,105.462,29.987,105.126,29.634
		 M113.959,45.434l-4.375-0.284c-0.091-0.019-0.182,0.029-0.223,0.114l-2.721,5.676c-0.025-0.014-0.051-0.027-0.076-0.041
		c-0.608-0.29-1.305-0.098-1.555,0.428c-0.255,0.526,0.033,1.189,0.639,1.48c0.597,0.284,1.28,0.104,1.545-0.414
		c0.005-0.006,0.007-0.009,0.012-0.014l2.009-4.187l2.492-0.077l2.396-2.392c0.029-0.056,0.029-0.121-0.002-0.179
		C114.072,45.489,114.02,45.448,113.959,45.434"/>
	<path clip-path="url(#SVGID_2_)" d="M18.449,101.942l1.259,0.127c-0.146,0.861-0.169,1.687-0.066,2.476
		c0.103,0.79,0.325,1.509,0.67,2.152c0.426,0.794,0.939,1.351,1.542,1.666c0.603,0.313,1.169,0.329,1.698,0.047
		c0.422-0.225,0.673-0.588,0.755-1.091c0.082-0.501-0.018-1.079-0.303-1.736c-0.064-0.159-0.166-0.386-0.304-0.679
		c-0.656-1.467-1.007-2.517-1.046-3.158c-0.023-0.501,0.063-0.938,0.255-1.309s0.479-0.656,0.858-0.859
		c0.69-0.369,1.424-0.364,2.202,0.013c0.777,0.381,1.43,1.062,1.958,2.049c0.384,0.718,0.644,1.487,0.782,2.313
		c0.136,0.825,0.144,1.676,0.017,2.551l-1.221-0.148c0.142-0.758,0.165-1.484,0.067-2.185c-0.097-0.702-0.311-1.36-0.642-1.978
		c-0.348-0.649-0.76-1.115-1.236-1.402c-0.477-0.286-0.905-0.327-1.285-0.123c-0.151,0.079-0.27,0.187-0.358,0.32
		c-0.089,0.135-0.151,0.302-0.184,0.499c-0.077,0.495,0.164,1.35,0.719,2.562c0.257,0.558,0.447,0.993,0.57,1.309
		c0.368,0.926,0.458,1.766,0.268,2.522c-0.19,0.755-0.623,1.315-1.297,1.676c-0.806,0.432-1.654,0.436-2.548,0.016
		c-0.894-0.42-1.643-1.197-2.249-2.328c-0.458-0.857-0.759-1.72-0.903-2.588C18.284,103.786,18.29,102.883,18.449,101.942"/>
	<path clip-path="url(#SVGID_2_)" d="M22.589,112.424l10.603-2.357l0.629,0.785l-4.6,9.867l-0.822-1.029l1.221-2.674l-3.367-4.208
		l-2.854,0.631L22.589,112.424z M27.493,112.53l2.683,3.353l2.027-4.382L27.493,112.53z"/>
	<polygon clip-path="url(#SVGID_2_)" points="33.441,124.544 32.876,124.036 35.893,113.637 36.873,114.516 34.451,122.85 
		42.476,119.544 43.475,120.442 	"/>
	<polygon clip-path="url(#SVGID_2_)" points="39.103,129.085 44.251,120.802 50.765,124.848 50.173,125.802 44.687,122.394 
		43.176,124.824 46.493,126.886 45.901,127.837 42.584,125.777 40.723,128.771 46.547,132.39 45.955,133.344 	"/>
	<polygon clip-path="url(#SVGID_2_)" points="57.27,136.906 59.765,128.644 55.841,127.459 56.165,126.384 65.19,129.11 
		64.865,130.185 60.933,128.996 58.438,137.26 	"/>
	<polygon clip-path="url(#SVGID_2_)" points="63.962,138.721 65.203,129.045 66.421,129.203 65.931,133.023 71.636,133.756 
		72.126,129.934 73.335,130.088 72.095,139.763 70.886,139.609 71.494,134.867 65.789,134.137 65.182,138.876 	"/>
	<polygon clip-path="url(#SVGID_2_)" points="76.32,139.906 75.771,130.168 83.428,129.735 83.492,130.856 77.044,131.22 
		77.204,134.077 81.104,133.857 81.166,134.979 77.268,135.199 77.466,138.718 84.311,138.333 84.375,139.453 	"/>
	<path clip-path="url(#SVGID_2_)" d="M94.753,126.724c1.441-0.532,2.761-0.536,3.956-0.012c1.196,0.525,2.046,1.472,2.55,2.836
		c0.509,1.375,0.483,2.638-0.08,3.786c-0.561,1.149-1.575,1.997-3.046,2.539l-3.92,1.449l-3.38-9.151L94.753,126.724z
		 M95.142,127.775l-2.785,1.03l2.604,7.043l2.784-1.03c1.129-0.414,1.896-1.058,2.31-1.93c0.412-0.87,0.421-1.847,0.022-2.923
		c-0.393-1.062-1.035-1.794-1.932-2.198C97.248,127.365,96.246,127.368,95.142,127.775"/>
	<path clip-path="url(#SVGID_2_)" d="M101.01,124.346l3.294,5.393c0.528,0.863,1.043,1.343,1.547,1.438
		c0.506,0.097,1.232-0.146,2.183-0.727c0.949-0.58,1.496-1.115,1.636-1.607c0.144-0.49-0.05-1.166-0.579-2.031l-3.293-5.391
		l1.04-0.636l3.465,5.67c0.626,1.024,0.809,1.924,0.549,2.693c-0.262,0.771-1.003,1.529-2.225,2.276
		c-1.221,0.746-2.234,1.06-3.038,0.938c-0.804-0.118-1.521-0.691-2.146-1.717l-3.466-5.668L101.01,124.346z"/>
	<path clip-path="url(#SVGID_2_)" d="M118.782,119.191l1.204-0.116c0.24,0.929,0.225,1.823-0.046,2.686
		c-0.269,0.858-0.768,1.622-1.501,2.286c-1.083,0.983-2.3,1.436-3.65,1.362c-1.352-0.073-2.523-0.659-3.518-1.753
		c-0.998-1.1-1.468-2.326-1.407-3.682c0.061-1.354,0.629-2.521,1.706-3.498c0.667-0.606,1.407-1.012,2.224-1.219
		c0.816-0.204,1.64-0.193,2.475,0.033l-0.265,1.221c-0.62-0.227-1.253-0.267-1.902-0.124c-0.649,0.144-1.236,0.454-1.766,0.933
		c-0.812,0.737-1.23,1.625-1.257,2.663c-0.029,1.039,0.342,1.983,1.114,2.836c0.772,0.852,1.676,1.31,2.71,1.382
		c1.035,0.071,1.958-0.262,2.77-0.998c0.567-0.514,0.944-1.112,1.132-1.789C118.991,120.733,118.983,119.994,118.782,119.191"/>
	<polygon clip-path="url(#SVGID_2_)" points="123.979,118.216 116.164,112.346 116.892,111.38 120.784,114.304 120.249,106.907 
		121.205,105.635 121.616,110.871 129.379,111.025 128.501,112.196 121.76,112.074 121.928,115.162 124.706,117.247 	"/>
</g>
</svg>
