<?xml version="1.0" encoding="utf-8"?>
<!-- Generator: Adobe Illustrator 17.0.0, SVG Export Plug-In . SVG Version: 6.00 Build 0)  -->
<!DOCTYPE svg PUBLIC "-//W3C//DTD SVG 1.1//EN" "http://www.w3.org/Graphics/SVG/1.1/DTD/svg11.dtd">
<svg version="1.1" id="Livello_1" xmlns="http://www.w3.org/2000/svg" xmlns:xlink="http://www.w3.org/1999/xlink" x="0px" y="0px"
	 width="155.667px" height="158.396px" viewBox="0 0 155.667 158.396" enable-background="new 0 0 155.667 158.396"
	 xml:space="preserve">
<g>
	<defs>
		<rect id="SVGID_1_" width="155.667" height="158.396"/>
	</defs>
	<clipPath id="SVGID_2_">
		<use xlink:href="#SVGID_1_"  overflow="visible"/>
	</clipPath>
	<path clip-path="url(#SVGID_2_)" d="M80.341,11.254c-0.126-0.231-0.369-0.392-0.652-0.392h-0.65l-0.326-7.858
		c-0.02-0.466-0.402-0.834-0.87-0.834h-1.172c-0.469,0-0.849,0.368-0.87,0.834l-0.326,7.858h-0.651
		c-0.302,0-0.561,0.181-0.677,0.441c-17.036,0.894-32.917,7.968-45.045,20.139C16.133,44.46,9.011,61.746,9.044,80.121
		c0.031,16.52,5.924,31.696,15.702,43.556c-0.544,0.536-0.889,1.274-0.889,2.098v1.072c0,1.633,1.324,2.956,2.954,2.956h3.638
		c5.952,5.665,12.915,10.277,20.582,13.538c1.184,7.177,7.41,12.758,14.895,12.884l0.254,0.002c4.102,0,7.969-1.656,10.892-4.663
		c0.835-0.86,1.559-1.801,2.17-2.799c11.589-0.235,22.479-3.348,31.989-8.652c0.231,0.408,0.497,0.79,0.796,1.14
		c1.002,1.172,2.852,2.568,5.975,2.568c4.247,0,7.413-3.304,8.462-8.797l1.677-8.167c11.488-12.325,18.516-28.854,18.482-46.99
		C146.555,42.845,117.045,12.578,80.341,11.254"/>
	<path clip-path="url(#SVGID_2_)" fill="#FFFFFF" d="M74.822,125.239c-0.604,0-0.939-0.2-0.939-2.011V99.492
		c0-7.643-5.096-7.913-7.645-7.913c-5.631,0-8.648,3.287-8.648,6.705c0,2.549,1.206,3.956,3.755,3.956c2.013,0,3.42-1.675,3.42-3.62
		c0-1.609-1.275-3.217-2.95-3.217c-0.738,0-1.476,0.133-2.012,0.267c0.738-1.676,2.815-2.883,4.694-2.883
		c2.077,0,2.613,0.805,2.613,5.633v6.771c-7.375,1.275-10.459,4.226-10.459,12.808c0,7.173,1.811,9.521,5.901,9.521
		c2.347,0,4.424-1.073,4.828-3.352h0.134c0.535,2.347,2.615,3.352,5.03,3.352c2.278,0,4.827-0.871,5.095-6.772h-1.073
		C76.363,124.3,75.492,125.239,74.822,125.239 M67.11,120.278c0,2.415-0.066,4.627-1.877,4.627c-1.809,0-1.809-1.275-1.809-2.75
		v-11.063c0-3.019,0.669-4.09,3.686-4.626V120.278z"/>
	<polygon clip-path="url(#SVGID_2_)" fill="#FFFFFF" points="88.434,92.05 79.784,92.05 79.784,93.123 81.662,93.123 
		81.662,125.778 79.784,125.778 79.784,126.849 90.311,126.849 90.311,125.778 88.434,125.778 	"/>
	<path clip-path="url(#SVGID_2_)" fill="#FFFFFF" d="M104.928,125.777v1.072h9.456v-1.072h-1.744V98.554
		c0-5.029-1.811-6.975-4.829-6.975c-2.615,0-3.689,0.738-5.363,3.019h-0.269v-2.549h-8.516v1.074h2.014v32.654h-2.014v1.072h9.724
		v-1.072h-0.939V97.751c0-2.214,1.073-3.691,2.01-3.691c1.14,0,1.41,0.538,1.41,2.079v29.638H104.928z"/>
	<path clip-path="url(#SVGID_2_)" fill="#FFFFFF" d="M127.525,92.05v1.073c1.743,0.336,2.347,1.073,2.347,2.815
		c0,0.737-0.068,1.543-0.202,2.281l-3.082,15.289h-0.136l-3.151-20.385h1.744V92.05h-10.192v1.073h1.743l6.771,36.141
		c-1.137,8.046-2.68,10.459-4.962,10.459c-0.871,0-1.743,0-1.743-0.536c0-0.535,3.285-0.939,3.285-4.224
		c0-1.945-1.274-3.218-3.485-3.218c-2.212,0-3.354,2.079-3.354,4.09c0,2.614,1.478,5.029,4.896,5.029
		c3.554,0,5.027-3.622,5.565-6.437l7.913-38.489c0.201-1.274,0.535-2.615,2.078-2.815V92.05H127.525z"/>
	<path clip-path="url(#SVGID_2_)" fill="#FFFFFF" d="M31.672,76.615c0,2.955-2.399,5.35-5.354,5.35c-2.956,0-5.352-2.397-5.352-5.35
		c0-2.958,5.024-9.723,5.352-10.053C26.516,66.364,31.672,73.657,31.672,76.615"/>
	<path clip-path="url(#SVGID_2_)" fill="#FFFFFF" d="M75.684,129.004v11.637c0,5.028-3.82,9.357-8.836,9.698
		c-5.509,0.375-10.114-3.979-10.156-9.397c-0.008-0.819-0.616-1.551-1.433-1.604c-0.889-0.054-1.627,0.651-1.627,1.528
		c0,6.853,5.517,12.437,12.341,12.554c7.023,0.118,12.771-5.816,12.771-12.839v-11.579L75.684,129.004z"/>
	<path clip-path="url(#SVGID_2_)" fill="#FFFFFF" d="M54.036,118.871c-0.404,4.626-0.873,6.101-2.483,6.101
		c-0.937,0-1.341-1.205-1.341-3.823v-6.57c0-8.112-2.479-10.123-8.246-12.27v-0.134c6.035-1.88,8.582-5.902,8.582-12.204
		c0-6.033-3.82-11.599-12.404-11.599h-4.506c-0.551,2.297-2.156,4.187-4.278,5.127v42.278h-2.547v1.072h13.41v-1.072h-2.615V102.71
		c3.353,0,4.694,0.538,4.694,4.828v13.478c0,4.224,2.011,6.237,6.369,6.237c3.486,0,6.571-1.008,6.437-8.382H54.036z
		 M37.608,101.773V79.445c3.017,0,4.358,0.334,4.358,3.285v15.891C41.966,100.767,41.229,101.773,37.608,101.773"/>
	<path clip-path="url(#SVGID_2_)" fill="#FFFFFF" d="M144.315,72.931c-1.784-16.212-9.426-31.181-21.561-42.205
		c-12.348-11.218-28.343-17.397-45.039-17.397c-16.704,0-32.703,6.183-45.053,17.407c-12.266,11.148-19.939,26.33-21.607,42.749
		c-0.029,0.287,0.064,0.574,0.259,0.788c0.108,0.118,0.24,0.207,0.386,0.265c0.151,0.09,0.328,0.139,0.514,0.139
		c0.157,0,0.291-0.034,0.557-0.101l0.295-0.078c2.258-0.596,4.475-1.068,6.649-1.423c0.324-0.744,0.712-1.498,1.128-2.236
		c-2.483,0.349-5.02,0.848-7.608,1.506c1.891-15.399,9.242-29.595,20.8-40.099c11.973-10.884,27.487-16.877,43.68-16.877
		c16.187,0,31.696,5.991,43.669,16.868c11.538,10.48,18.888,24.643,20.796,40.009c-5.319-1.326-10.442-1.996-15.242-1.996
		c-5.271,0-10.015,0.816-14.101,2.423c-0.858,0.336-1.681,0.711-2.475,1.112c-0.072-3.282-0.54-10.832-3.118-19.883
		c-0.153-0.544-0.718-0.856-1.26-0.703c-0.541,0.155-0.856,0.72-0.702,1.262c2.57,9.025,2.985,16.669,3.042,19.66
		c-1.279-0.365-3.448-0.928-6.463-1.504c-2.921-0.561-6.937-1.183-11.881-1.609c0.302,0.43,0.508,0.784,0.508,0.784
		c-0.285-0.497-0.78-0.284-0.78-0.284c0.283,0.142,0.427,0.994,0.427,0.994c0.207,0.179,0.382,0.392,0.53,0.616
		c4.466,0.415,8.114,0.986,10.812,1.502c4.857,0.93,7.508,1.836,7.536,1.844c0.01,0.004,0.019,0.002,0.029,0.006
		c0.087,0.027,0.176,0.046,0.27,0.05h0.033h0.002c0.083,0,0.163-0.013,0.24-0.032c0.021-0.006,0.041-0.012,0.062-0.018
		c0.064-0.021,0.125-0.047,0.183-0.078c0.011-0.007,0.023-0.009,0.033-0.015c1.139-0.675,2.391-1.283,3.717-1.805
		c3.848-1.515,8.341-2.283,13.356-2.283c4.947,0,10.262,0.741,15.795,2.205l0.374,0.099c0.212,0.052,0.34,0.084,0.49,0.084
		c0.487,0,0.904-0.342,1.001-0.82C144.666,73.514,144.554,73.166,144.315,72.931"/>
	<path clip-path="url(#SVGID_2_)" fill="#FFFFFF" d="M57.668,71.977c-1.347,0.208-2.568,0.419-3.634,0.624
		c-3.057,0.582-5.255,1.15-6.545,1.52c0.116-5.521,1.541-26.998,16.107-44.883c0.356-0.438,0.29-1.079-0.147-1.436
		c-0.435-0.355-1.079-0.289-1.435,0.148C47.318,45.995,45.629,67.582,45.458,73.789c-0.815-0.414-1.664-0.798-2.543-1.142
		c-3.364-1.314-7.18-2.087-11.361-2.316c0.45,0.792,0.813,1.495,1.104,2.114c3.489,0.291,6.677,0.994,9.514,2.102
		c1.341,0.524,2.611,1.14,3.773,1.829c0.016,0.012,0.035,0.016,0.053,0.025c0.039,0.019,0.077,0.039,0.116,0.053
		c0.03,0.011,0.058,0.019,0.086,0.027c0.038,0.01,0.075,0.017,0.114,0.023c0.033,0.006,0.066,0.008,0.099,0.01
		c0.016,0,0.033,0.005,0.051,0.005h0.037c0.013-0.001,0.025-0.005,0.039-0.005c0.032-0.004,0.065-0.008,0.098-0.014
		c0.041-0.007,0.078-0.015,0.117-0.027c0.014-0.004,0.029-0.004,0.042-0.01c0.028-0.007,2.708-0.923,7.62-1.86
		c1.269-0.242,2.752-0.496,4.429-0.741c-0.137-0.582-0.178-0.935-0.178-0.935C58.278,72.637,57.952,72.315,57.668,71.977"/>
	<path clip-path="url(#SVGID_2_)" fill="#FFFFFF" d="M91.452,28.436c0.202,0.229,0.481,0.343,0.765,0.343
		c0.241,0,0.482-0.083,0.673-0.254c0.424-0.373,0.462-1.017,0.09-1.44c-2.295-2.6-4.83-5.006-7.53-7.155
		c-0.439-0.35-1.081-0.278-1.433,0.163c-0.351,0.44-0.277,1.081,0.164,1.434C86.787,23.602,89.233,25.926,91.452,28.436"/>
	<path clip-path="url(#SVGID_2_)" fill="#FFFFFF" d="M37.039,62.773c0-1.336-2.329-4.63-2.418-4.541
		c-0.148,0.148-2.419,3.205-2.419,4.541c0,1.333,1.083,2.417,2.419,2.417C35.954,65.19,37.039,64.106,37.039,62.773"/>
	<path clip-path="url(#SVGID_2_)" fill="#FF8300" d="M97.093,47.571c0,0-0.85-2.414-2.768,0.425c0,0-1.562,0.854-3.339,0.214
		c0,0-1.065-0.425-1.776-0.497c0,0-0.283-0.782-0.924-0.924c0,0-1.632-6.748-7.671-7.528c0,0,1.207-1.99-0.923-3.765
		c0,0,0.923,2.131,0,2.983c0,0-0.924-3.55-5.041-3.265c0,0,2.555,0.85,3.477,2.485c0,0-4.614-2.701-7.029,2.77
		c0,0,2.06-2.629,5.398-1.351c0,0-6.464,0.995-7.459,10.798c0,0-2.13,0.423-2.629,0.922c0,0,1.351-0.283,1.918,0.426
		c0,0-2.129,1.42-2.129,3.268c0,0,1.562-1.848,2.626-1.279c0,0-1.774,1.846-0.992,3.481c0,0,0.78-1.918,1.489-1.705
		c0,0-1.064,3.126,0.712,3.695c0,0-0.427-2.062,0.497-2.062c0,0,0.569,2.345,3.55,3.552c0,0,3.584,5.043,0.639,5.043
		c-0.068,0-4.053,2.202-5.61,2.202c-0.213,0-2.556,1.065-3.907,0.496c0,0-2.202-1.846-3.337-0.424c0,0-1.848-1.707-2.842-1.635
		c0,0-1.774-1.988-2.842-1.702c0,0-1.134,0.496-0.14,3.051c0,0-0.101,2.673,1.627,4.732c0.284,0.338,0.61,0.661,1,0.95
		c0,0,0.04,0.353,0.178,0.936c0.563,2.366,2.782,8.599,10.836,11.148c-0.266,0.535-0.893,1.642-1.639,1.91
		c0,0-1.49-0.641-2.342-1.421c0,0-0.142,7.53,9.587,9.731c0,0-1.918-1.209-2.415-2.415c0,0,2.489,0.355,3.764,0l-0.567-0.499
		c0,0,6.321,1.565,11.789-2.129c0,0-2.201,0-3.55-0.213c0,0,1.989-1.208,2.556-2.913c0,0-2.343,1.35-3.409,1.492
		c0,0,1.35-1.633,1.421-3.267c0,0-4.404,3.622-6.891,3.693c0,0-0.751-1.88-0.898-3.07c2.438-0.247,6.382-1.074,9.991-3.747
		c0,0,2.345-1.351,2.983-3.694c0,0,1.918-1.846,0.497-4.261c0,0,0.641,0.142,0.854,0.78c0,0-0.182-1.023-0.747-1.871
		c-0.149-0.223-0.324-0.436-0.532-0.615c0,0-0.143-0.852-0.427-0.994c0,0,0.495-0.214,0.78,0.283c0,0-0.205-0.353-0.508-0.784
		c-0.29-0.409-0.672-0.891-1.052-1.203c0,0-2.273-4.477-3.553-5.542c0,0-2.77-2.84-0.283-5.114c0,0,1.846-0.993,3.195-2.486
		c0,0,3.764-0.284,5.115,1.421c0,0,0.214,0.142,0.214-0.354c0-0.497-1.066-3.979-2.415-4.548
		C91.2,53.181,97.023,51.052,97.093,47.571 M70.93,50.871c-0.6,0-1.085-0.485-1.085-1.085s1.017-1.972,1.085-2.038
		c0.039-0.041,1.085,1.438,1.085,2.038S71.528,50.871,70.93,50.871 M73.704,48.031c-1.068,0-1.932-0.866-1.932-1.931
		c0-1.068,1.814-3.508,1.932-3.628c0.07-0.072,1.932,2.56,1.932,3.628C75.636,47.165,74.77,48.031,73.704,48.031 M75.826,52.519
		c-0.695,0-1.256-0.563-1.256-1.255c0-0.693,1.178-2.279,1.256-2.357c0.045-0.047,1.255,1.664,1.255,2.357
		C77.081,51.956,76.519,52.519,75.826,52.519 M76.142,89.621c0,0-5.115-0.215-6.748-1.992c0,0,0.866-1.273,1.192-2.358
		c1.247,0.334,2.615,0.586,4.133,0.726c0,0,0.455,0.029,1.219-0.006C75.996,86.405,76.336,88.839,76.142,89.621"/>
	<path clip-path="url(#SVGID_2_)" fill="#FF8300" d="M104.346,46.979c0-0.008,0.002-0.018,0.002-0.027v-5.224
		c0-0.044-0.02-0.087-0.057-0.115c-0.036-0.027-0.081-0.036-0.126-0.025l-3.882,1.021c-0.064,0.018-0.107,0.076-0.107,0.142v4.463
		c-0.021,0-0.042-0.002-0.064-0.002c-0.475,0-0.862,0.338-0.862,0.751c0,0.413,0.387,0.749,0.862,0.749
		c0.47,0,0.852-0.326,0.864-0.739v-0.012V44.67l2.572-0.676v2.194c-0.021-0.002-0.041-0.004-0.064-0.004
		c-0.475,0-0.862,0.338-0.862,0.751c0,0.414,0.387,0.75,0.862,0.75C103.944,47.685,104.319,47.378,104.346,46.979"/>
	<path clip-path="url(#SVGID_2_)" fill="#FF8300" d="M99.266,37.727l-2.906-2.912c-0.025-0.025-0.06-0.036-0.095-0.03
		c-0.035,0.004-0.068,0.025-0.083,0.054l-1.596,2.729c-0.028,0.047-0.02,0.103,0.017,0.14l2.483,2.488
		c-0.012,0.01-0.023,0.022-0.035,0.033c-0.266,0.265-0.293,0.668-0.064,0.897c0.229,0.231,0.633,0.202,0.899-0.062
		c0.26-0.26,0.293-0.654,0.069-0.891c-0.003-0.002-0.005-0.004-0.007-0.008l-1.832-1.834l1.057-1.809l1.221,1.223
		c-0.013,0.011-0.023,0.023-0.035,0.035c-0.266,0.263-0.297,0.665-0.066,0.898c0.231,0.23,0.633,0.202,0.899-0.064
		c0.256-0.254,0.293-0.635,0.088-0.871C99.276,37.739,99.272,37.733,99.266,37.727"/>
	<path clip-path="url(#SVGID_2_)" fill="#FF8300" d="M100.924,50.506c-0.06-0.013-0.123,0.018-0.149,0.074l-1.811,3.78
		c-0.016-0.01-0.034-0.018-0.053-0.028c-0.402-0.192-0.866-0.064-1.035,0.287c-0.167,0.35,0.026,0.789,0.427,0.985
		c0.396,0.188,0.854,0.068,1.031-0.276c0.002-0.004,0.004-0.006,0.006-0.01l1.335-2.787l1.66-0.051l1.598-1.592
		c0.017-0.038,0.017-0.083-0.002-0.12c-0.02-0.039-0.054-0.064-0.095-0.074L100.924,50.506z"/>
</g>
</svg>
