<?xml version="1.0" encoding="utf-8"?>
<!-- Generator: Adobe Illustrator 24.0.0, SVG Export Plug-In . SVG Version: 6.00 Build 0)  -->
<svg version="1.1" id="Livello_1" xmlns="http://www.w3.org/2000/svg" xmlns:xlink="http://www.w3.org/1999/xlink" x="0px" y="0px"
	 viewBox="0 0 155.67 158.4" style="enable-background:new 0 0 155.67 158.4;" xml:space="preserve">
<g>
	<g>
		<path style="fill:#00A571" d="M7.73,79.2c0-38.72,31.39-70.11,70.11-70.11c38.72,0,70.11,31.39,70.11,70.11
			c0,38.72-31.39,70.11-70.11,70.11C39.12,149.3,7.73,117.92,7.73,79.2"/>
	</g>
	<g>
		<g>
			<g>
				<path style="fill:#FFFFFF" d="M98.16,51.72c0,0-2.11,1.16-4.52,0.29c0,0-1.44-0.58-2.4-0.67c0,0-0.38-1.06-1.25-1.25
					c0,0-2.21-9.13-10.38-10.18c0,0,1.63-2.69-1.25-5.09c0,0,1.25,2.88,0,4.03c0,0-1.25-4.8-6.82-4.42c0,0,3.46,1.15,4.71,3.36
					c0,0-6.24-3.65-9.51,3.75c0,0,2.79-3.56,7.3-1.83c0,0-8.74,1.34-10.09,14.6c0,0-2.88,0.57-3.55,1.25c0,0,1.82-0.38,2.59,0.57
					c0,0-2.88,1.92-2.88,4.42c0,0,2.11-2.5,3.55-1.73c0,0-2.4,2.5-1.34,4.71c0,0,1.05-2.6,2.02-2.31c0,0-1.44,4.23,0.96,5
					c0,0-0.58-2.79,0.67-2.79c0,0,0.77,3.17,4.8,4.8c0,0,4.85,6.82,0.86,6.82c-0.1,0-5.48,2.98-7.59,2.98
					c-0.29,0-3.46,1.44-5.29,0.67c0,0-2.98-2.5-4.52-0.57c0,0-2.5-2.31-3.84-2.21c0,0-2.4-2.69-3.84-2.3c0,0-1.54,0.67-0.19,4.13
					c0,0-0.19,4.9,3.56,7.69c0,0,1.32,12.05,14.9,16.34c-0.36,0.72-1.21,2.22-2.22,2.58c0,0-2.02-0.87-3.17-1.92
					c0,0-0.19,10.19,12.97,13.16c0,0-2.6-1.63-3.27-3.26c0,0,3.37,0.48,5.09,0l-0.77-0.67c0,0,8.55,2.12,15.95-2.88
					c0,0-2.98,0-4.8-0.29c0,0,2.69-1.63,3.46-3.94c0,0-3.17,1.82-4.61,2.02c0,0,1.83-2.21,1.92-4.42c0,0-5.96,4.9-9.32,4.99
					c0,0-1.02-2.54-1.22-4.15c3.3-0.33,8.63-1.45,13.52-5.07c0,0,3.17-1.82,4.03-4.99c0,0,2.59-2.5,0.67-5.76
					c0,0,0.86,0.19,1.15,1.06c0,0-0.39-2.21-1.73-3.36c0,0-0.19-1.15-0.58-1.35c0,0,0.67-0.29,1.06,0.38c0,0-1.06-1.83-2.11-2.69
					c0,0-3.07-6.05-4.8-7.49c0,0-3.75-3.84-0.38-6.92c0,0,2.5-1.34,4.32-3.36c0,0,5.09-0.38,6.92,1.92c0,0,0.29,0.19,0.29-0.48
					c0-0.67-1.44-5.38-3.27-6.15c0,0,7.88-2.88,7.98-7.59C101.91,51.15,100.75,47.88,98.16,51.72z M66.52,55.61
					c-0.81,0-1.47-0.66-1.47-1.47c0-0.81,1.38-2.67,1.47-2.76c0.06-0.05,1.47,1.95,1.47,2.76C67.99,54.96,67.33,55.61,66.52,55.61z
					 M70.27,51.77c-1.44,0-2.61-1.17-2.61-2.61c0-1.44,2.45-4.75,2.61-4.91c0.1-0.1,2.61,3.46,2.61,4.91
					C72.88,50.6,71.71,51.77,70.27,51.77z M73.56,108.02c0,0-6.92-0.29-9.13-2.69c0,0,1.17-1.72,1.61-3.19
					c1.69,0.45,3.54,0.79,5.6,0.98c0,0,0.62,0.04,1.65-0.01C73.37,103.68,73.83,106.97,73.56,108.02z M73.14,57.84
					c-0.94,0-1.7-0.76-1.7-1.7c0-0.94,1.59-3.08,1.7-3.19c0.06-0.06,1.7,2.25,1.7,3.19C74.84,57.08,74.08,57.84,73.14,57.84z
					 M111.64,43.09c-0.05-0.04-0.11-0.05-0.17-0.03l-5.25,1.38c-0.09,0.02-0.15,0.1-0.15,0.19v6.04c-0.03,0-0.05,0-0.08,0
					c-0.65,0-1.17,0.45-1.17,1.01c0,0.56,0.52,1.01,1.17,1.01c0.63,0,1.15-0.44,1.17-1v-0.02v-4.45l3.48-0.92v2.97
					c-0.03,0-0.06,0-0.08,0c-0.64,0-1.17,0.45-1.17,1.01c0,0.56,0.53,1.01,1.17,1.01c0.62,0,1.13-0.41,1.16-0.95
					c0-0.01,0-0.03,0-0.04v-7.07C111.72,43.19,111.69,43.13,111.64,43.09z M103.07,41.14c0,0-0.01-0.01-0.01-0.01l-2.48-2.48
					l1.43-2.45l1.65,1.65c-0.02,0.01-0.03,0.03-0.05,0.05c-0.36,0.36-0.4,0.9-0.09,1.21c0.31,0.31,0.86,0.27,1.21-0.08
					c0.35-0.35,0.4-0.86,0.12-1.18c-0.01-0.01-0.01-0.01-0.02-0.02l-3.93-3.94c-0.03-0.03-0.08-0.05-0.13-0.05
					c-0.05,0.01-0.09,0.04-0.11,0.08l-2.16,3.69c-0.03,0.06-0.02,0.14,0.03,0.19l3.36,3.37c-0.02,0.01-0.03,0.03-0.05,0.05
					c-0.36,0.36-0.4,0.9-0.09,1.21c0.31,0.31,0.86,0.27,1.21-0.08C103.33,42,103.37,41.46,103.07,41.14z M111.02,55.37l-3.94-0.26
					c-0.08-0.02-0.16,0.03-0.2,0.1l-2.45,5.11c-0.02-0.01-0.04-0.03-0.07-0.04c-0.55-0.26-1.17-0.09-1.4,0.39
					c-0.23,0.47,0.03,1.07,0.57,1.33c0.54,0.26,1.15,0.09,1.39-0.37c0-0.01,0.01-0.01,0.01-0.01l1.81-3.77l2.25-0.07l2.16-2.15
					c0.03-0.05,0.03-0.11,0-0.16C111.13,55.42,111.08,55.39,111.02,55.37z"/>
			</g>
		</g>
		<g>
			<g>
				<g>
					<path style="fill:#FFFFFF" d="M32.03,101.22l1.06,0.04c-0.07,0.73-0.05,1.42,0.08,2.08c0.13,0.66,0.36,1.25,0.68,1.77
						c0.4,0.64,0.86,1.08,1.39,1.31c0.52,0.23,1,0.21,1.43-0.06c0.34-0.21,0.53-0.53,0.57-0.96c0.04-0.43-0.08-0.9-0.35-1.44
						c-0.06-0.13-0.16-0.31-0.29-0.55c-0.63-1.19-0.99-2.05-1.06-2.59c-0.05-0.42,0-0.79,0.14-1.11c0.14-0.32,0.36-0.58,0.67-0.77
						c0.56-0.35,1.17-0.39,1.85-0.11c0.67,0.27,1.26,0.81,1.76,1.61c0.36,0.58,0.62,1.21,0.79,1.9c0.16,0.68,0.21,1.4,0.16,2.14
						l-1.03-0.06c0.08-0.64,0.05-1.26-0.07-1.84c-0.12-0.58-0.34-1.12-0.65-1.62c-0.33-0.53-0.7-0.89-1.12-1.11
						c-0.42-0.21-0.78-0.22-1.08-0.03c-0.12,0.08-0.22,0.17-0.28,0.29c-0.07,0.12-0.11,0.26-0.13,0.43
						c-0.04,0.42,0.21,1.12,0.75,2.11c0.25,0.45,0.43,0.81,0.55,1.06c0.36,0.76,0.48,1.46,0.37,2.1c-0.12,0.64-0.45,1.14-0.99,1.48
						c-0.65,0.41-1.36,0.46-2.13,0.16c-0.77-0.3-1.44-0.91-2.02-1.83c-0.43-0.69-0.73-1.4-0.9-2.12S31.95,102.01,32.03,101.22z"/>
				</g>
			</g>
			<g>
				<g>
					<path style="fill:#FFFFFF" d="M36.09,109.77l8.76-2.57l0.57,0.62l-3.3,8.53l-0.75-0.82l0.87-2.31l-3.06-3.34l-2.36,0.69L36.09,109.77z
						 M40.21,109.58l2.44,2.66l1.45-3.79L40.21,109.58z"/>
				</g>
			</g>
			<g>
				<g>
					<path style="fill:#FFFFFF" d="M45.87,119.32l-0.5-0.39l1.94-8.89l0.87,0.68l-1.56,7.12l6.54-3.22l0.89,0.7L45.87,119.32z"/>
				</g>
			</g>
			<g>
				<g>
					<path style="fill:#FFFFFF" d="M50.87,122.81l3.85-7.24l5.69,3.03l-0.44,0.83l-4.79-2.55l-1.13,2.12l2.9,1.54l-0.44,0.83l-2.9-1.54
						l-1.39,2.62l5.09,2.71L56.86,126L50.87,122.81z"/>
				</g>
			</g>
			<g>
				<g>
					<path style="fill:#FFFFFF" d="M65.99,128.98l1.63-7.07l-3.36-0.77l0.21-0.92l7.72,1.78l-0.21,0.92l-3.36-0.77l-1.63,7.07L65.99,128.98z"
						/>
				</g>
			</g>
			<g>
				<g>
					<path style="fill:#FFFFFF" d="M71.71,130.13l0.5-8.18l1.03,0.06l-0.2,3.23l4.82,0.29l0.2-3.23l1.02,0.06l-0.5,8.18l-1.02-0.06l0.24-4.01
						l-4.82-0.29l-0.24,4.01L71.71,130.13z"/>
				</g>
			</g>
			<g>
				<g>
					<path style="fill:#FFFFFF" d="M82.13,130.42l-1.01-8.13l6.4-0.79l0.12,0.94l-5.39,0.67l0.3,2.39l3.26-0.4l0.12,0.94l-3.26,0.4l0.36,2.94
						l5.72-0.71l0.12,0.94L82.13,130.42z"/>
				</g>
			</g>
			<g>
				<g>
					<path style="fill:#FFFFFF" d="M96.85,118.33c1.18-0.53,2.28-0.6,3.32-0.23c1.03,0.37,1.8,1.12,2.3,2.23c0.5,1.12,0.55,2.18,0.15,3.18
						c-0.41,1-1.21,1.76-2.41,2.3l-3.21,1.44l-3.35-7.48L96.85,118.33z M97.23,119.19l-2.28,1.02l2.58,5.76l2.28-1.02
						c0.92-0.41,1.53-0.99,1.83-1.75c0.3-0.75,0.25-1.57-0.15-2.45c-0.39-0.87-0.97-1.45-1.74-1.73
						C98.98,118.73,98.14,118.79,97.23,119.19z"/>
				</g>
			</g>
			<g>
				<g>
					<path style="fill:#FFFFFF" d="M102.52,115.35l3.07,4.33c0.49,0.69,0.95,1.07,1.38,1.12c0.43,0.05,1.02-0.19,1.79-0.73
						c0.76-0.54,1.19-1.02,1.28-1.44c0.09-0.42-0.11-0.98-0.6-1.67l-3.07-4.33l0.84-0.59l3.22,4.56c0.58,0.82,0.79,1.57,0.61,2.23
						c-0.18,0.66-0.76,1.34-1.74,2.03c-0.98,0.69-1.81,1.01-2.49,0.96c-0.68-0.05-1.31-0.49-1.9-1.32l-3.22-4.56L102.52,115.35z"/>
				</g>
			</g>
			<g>
				<g>
					<path style="fill:#FFFFFF" d="M117.13,110.03l1-0.17c0.25,0.77,0.29,1.52,0.11,2.25c-0.18,0.74-0.55,1.4-1.13,2
						c-0.85,0.88-1.85,1.33-2.98,1.35c-1.14,0.01-2.15-0.41-3.05-1.27c-0.9-0.87-1.36-1.87-1.39-3.01
						c-0.03-1.14,0.39-2.15,1.23-3.03c0.53-0.55,1.12-0.93,1.8-1.15c0.67-0.22,1.36-0.26,2.08-0.11l-0.15,1.04
						c-0.53-0.15-1.07-0.15-1.6,0c-0.54,0.16-1.01,0.45-1.43,0.88c-0.64,0.66-0.94,1.43-0.91,2.3c0.04,0.87,0.4,1.64,1.1,2.31
						c0.7,0.67,1.48,1.01,2.35,1.01c0.87,0,1.63-0.33,2.27-0.99c0.45-0.46,0.73-0.98,0.85-1.56
						C117.39,111.31,117.34,110.69,117.13,110.03z"/>
				</g>
			</g>
			<g>
				<g>
					<path style="fill:#FFFFFF" d="M121.43,108.92l-6.88-4.48l0.55-0.85l3.43,2.23l-0.86-6.17l0.73-1.12l0.64,4.37l6.52-0.31l-0.67,1.03
						l-5.66,0.28l0.31,2.58l2.45,1.59L121.43,108.92z"/>
				</g>
			</g>
		</g>
		<g>
			<path style="fill:#FFFFFF" d="M138.68,98.65l-4.35,2.1c2.56-6.83,3.87-14.03,3.87-21.41c0-31.5-23.61-57.6-54.91-60.7l-0.2-0.02
				l-0.27,2.75l0.2,0.02c29.88,2.97,52.42,27.88,52.42,57.95c0,7.09-1.26,14-3.73,20.55l-1.85-4.69l-1.7,0.67l3.28,8.3l8.04-3.87
				L138.68,98.65z"/>
			<path style="fill:#FFFFFF" d="M18.96,79.34c0-28.9,21.08-53.26,49.38-57.56l-3.18,3.88l1.41,1.16l5.66-6.9l-7.3-5.15l-1.05,1.49l3.97,2.8
				c-29.62,4.54-51.66,30.04-51.66,60.29c0,8.67,1.78,17.05,5.29,24.9l0.08,0.19l2.53-1.13l-0.08-0.19
				C20.66,95.61,18.96,87.61,18.96,79.34z"/>
			<path style="fill:#FFFFFF" d="M124.92,112.73c-10.91,15.56-28.74,24.84-47.72,24.84c-17.66,0-34.5-8.15-45.51-21.91l4.95,0.82l0.3-1.8
				l-8.81-1.45l-0.81,8.89l1.82,0.17l0.44-4.83c11.49,14.32,29.02,22.82,47.42,22.88v0h0.2h0.2v0c19.8-0.07,38.39-9.78,49.78-26.02
				l0.12-0.17l-2.27-1.59L124.92,112.73z"/>
		</g>
	</g>
</g>
</svg>
