<svg xmlns="http://www.w3.org/2000/svg" width="20" height="20" viewBox="0 0 20 20">
    <path fill="currentColor" fill-rule="evenodd" d="M10 19C4.4 15.666 1.152 12.064.256 8.814A6.5 6.5 0 0 1 0 7c0-3.314 2.462-6 5.5-6C7.36 1 9.005 2.007 10 3.55 10.995 2.006 12.64 1 14.5 1 17.538 1 20 3.686 20 7a6.5 6.5 0 0 1-.256 1.815C18.848 12.065 15.6 15.665 10 19zm7.816-10.717l.007-.026A4.5 4.5 0 0 0 18 7c0-2.246-1.608-4-3.5-4-1.113 0-2.154.603-2.82 1.634l-.865 1.218a1 1 0 0 1-1.63 0L8.32 4.634C7.654 3.603 6.613 3 5.5 3 3.608 3 2 4.754 2 7c0 .434.06.856.184 1.283.711 2.58 3.394 5.554 7.816 8.369 4.422-2.814 7.104-5.788 7.816-8.369z"/>
</svg>
